<?xml version="1.0" standalone="no"?>
<!DOCTYPE svg PUBLIC "-//W3C//DTD SVG 20010904//EN"
 "http://www.w3.org/TR/2001/REC-SVG-20010904/DTD/svg10.dtd">
<svg version="1.0" xmlns="http://www.w3.org/2000/svg"
 width="512.000000pt" height="512.000000pt" viewBox="0 0 512.000000 512.000000"
 preserveAspectRatio="xMidYMid meet">

<g transform="translate(0.000000,512.000000) scale(0.100000,-0.100000)"
fill="#000000" stroke="none">
<path d="M196 4894 c-36 -11 -65 -31 -107 -73 -98 -98 -90 87 -87 -1956 l3
-1790 23 -42 c35 -66 79 -110 140 -140 l57 -28 793 0 794 0 24 28 c30 35 30
59 0 94 l-24 28 -789 5 c-873 6 -817 1 -854 72 -18 36 -19 78 -19 1508 l0
1470 546 0 c404 0 543 -3 538 -11 -4 -7 -28 -40 -54 -74 -26 -35 -68 -99 -92
-142 -43 -76 -128 -264 -128 -283 0 -5 -96 -10 -212 -12 -244 -3 -269 -10
-323 -87 l-30 -43 0 -358 0 -358 30 -43 c54 -76 81 -83 313 -89 l204 -5 33
-85 c198 -514 621 -886 1145 -1006 360 -82 719 -44 1053 113 94 45 98 46 111
27 8 -10 68 -91 135 -178 83 -109 119 -165 115 -175 -26 -59 -36 -129 -27
-184 l9 -57 -683 0 c-745 0 -745 0 -759 -54 -3 -14 -3 -38 0 -52 14 -54 10
-54 813 -54 l738 -1 190 -252 c105 -138 209 -273 233 -298 76 -82 197 -116
303 -86 41 12 92 44 200 125 168 127 200 159 230 227 30 66 30 170 1 236 l-20
47 71 6 c123 12 204 64 259 169 l23 42 3 1790 c3 2043 11 1858 -87 1956 -99
98 155 89 -2475 88 -2029 0 -2317 -2 -2360 -15z m4693 -152 c19 -9 44 -30 55
-45 19 -26 21 -44 24 -248 l3 -219 -704 0 c-639 0 -706 2 -718 16 -16 19 -145
117 -205 156 -70 45 -235 124 -324 156 -196 68 -401 98 -610 88 -347 -16 -662
-134 -929 -348 l-85 -68 -623 0 -624 0 3 219 c3 204 5 222 24 248 11 15 36 36
55 45 32 17 164 18 2329 18 2165 0 2297 -1 2329 -18z m-2123 -271 c298 -61
531 -187 744 -400 104 -105 220 -252 220 -280 0 -8 -156 -11 -535 -11 l-534 0
-21 -22 c-25 -27 -26 -69 -1 -99 l19 -24 584 -5 583 -5 37 -110 c63 -188 73
-255 73 -480 -1 -180 -3 -211 -27 -310 -14 -60 -40 -147 -58 -192 l-31 -83
-1335 0 -1335 0 -20 48 c-116 269 -134 647 -45 952 13 47 34 106 45 133 l20
47 595 0 c415 0 602 3 619 11 24 11 47 47 47 73 0 7 -9 25 -21 40 l-20 26
-570 0 c-313 0 -569 3 -569 8 1 19 137 194 207 264 256 260 514 385 908 442
73 11 324 -3 421 -23z m2204 -1872 l0 -1471 -21 -38 c-34 -61 -60 -70 -196
-70 l-118 0 -180 236 c-99 130 -199 254 -223 275 -57 49 -124 72 -206 67 l-63
-3 -140 184 -140 184 71 91 c110 141 215 334 257 474 l12 41 281 3 c320 3 334
7 391 87 l30 43 3 331 c3 347 0 383 -40 440 -11 15 -38 37 -61 50 -40 21 -54
22 -328 25 l-286 3 -37 93 c-42 106 -119 244 -191 343 -27 37 -51 71 -53 76
-2 4 276 7 617 7 l621 0 0 -1471z m-4064 764 c-38 -186 -42 -406 -10 -600 l7
-43 -159 0 c-128 0 -164 3 -182 16 -22 15 -22 16 -22 323 0 225 3 310 12 319
8 8 64 12 186 12 l174 0 -6 -27z m3662 15 c9 -9 12 -94 12 -319 0 -307 0 -308
-22 -323 -19 -13 -61 -16 -254 -16 -127 0 -233 2 -236 5 -2 3 1 40 8 82 18
107 17 357 -1 477 -8 55 -15 101 -15 103 0 1 112 3 248 3 180 0 251 -3 260
-12z m-843 -1105 c-63 -99 -122 -171 -214 -263 -496 -495 -1258 -568 -1842
-178 -151 100 -330 284 -418 431 l-23 37 1257 0 1257 0 -17 -27z m-19 -590
l123 -162 -84 -65 c-46 -36 -88 -66 -93 -66 -5 0 -64 73 -132 162 l-123 162
28 21 c16 11 53 41 84 67 31 26 60 46 65 44 5 -1 65 -75 132 -163z m410 -252
c25 -15 452 -561 518 -663 22 -34 23 -106 2 -146 -18 -34 -261 -226 -316 -249
-40 -18 -96 -13 -133 12 -36 23 -509 647 -525 691 -16 46 -7 97 25 134 26 31
248 203 291 226 38 20 101 17 138 -5z"/>
<path d="M444 4540 c-26 -10 -54 -48 -54 -72 0 -9 11 -29 23 -44 45 -52 130
-22 130 46 0 51 -53 88 -99 70z"/>
<path d="M753 4535 c-35 -15 -49 -48 -39 -90 8 -30 39 -48 80 -47 57 2 87 76
49 120 -25 28 -52 33 -90 17z"/>
<path d="M1050 4520 c-30 -30 -27 -83 7 -110 73 -57 167 45 100 108 -30 28
-80 29 -107 2z"/>
<path d="M2968 3306 c-10 -7 -22 -25 -28 -40 -9 -24 1 -56 67 -234 82 -222
107 -262 160 -262 53 1 71 28 122 183 18 53 34 97 36 97 2 0 20 -50 40 -110
42 -127 72 -170 117 -170 54 0 78 39 161 262 66 178 76 210 67 234 -14 35 -38
53 -71 54 -46 0 -61 -22 -109 -171 l-47 -144 -43 135 c-45 140 -70 180 -112
180 -48 0 -65 -25 -114 -172 l-47 -143 -47 144 c-28 88 -54 149 -65 157 -24
17 -65 17 -87 0z"/>
<path d="M1245 3285 c-14 -13 -25 -33 -25 -44 0 -22 141 -407 161 -439 7 -11
24 -25 36 -31 69 -32 102 0 148 142 21 61 40 115 44 119 4 4 24 -45 45 -109
42 -128 67 -163 115 -163 56 0 76 31 156 248 41 112 75 216 75 232 0 33 -40
70 -75 70 -45 0 -64 -30 -109 -174 -24 -76 -46 -135 -48 -130 -3 5 -22 59 -41
120 -52 165 -64 184 -121 184 -38 0 -59 -35 -107 -178 l-46 -137 -42 135 c-45
143 -69 180 -117 180 -14 0 -36 -11 -49 -25z"/>
<path d="M2103 3295 c-43 -30 -38 -58 43 -275 81 -218 107 -260 161 -260 45 0
70 35 109 154 20 61 40 115 44 119 5 5 25 -44 46 -108 43 -130 67 -165 113
-165 57 0 77 31 156 245 41 110 75 214 75 232 0 36 -38 73 -75 73 -45 0 -63
-30 -107 -172 -23 -76 -45 -135 -49 -130 -3 4 -25 66 -48 139 -43 137 -60 163
-109 163 -43 0 -68 -41 -112 -181 -27 -86 -45 -128 -50 -118 -4 8 -24 68 -44
134 -26 87 -43 126 -62 143 -29 26 -61 28 -91 7z"/>
</g>
</svg>
